<svg width="162" height="47" viewBox="0 0 162 47" fill="none" xmlns="http://www.w3.org/2000/svg">
<g clip-path="url(#clip0_296_9774)">
<path d="M140.566 21.9765C142.629 21.9765 143.424 23.239 143.535 24.3384C143.537 24.355 143.535 24.3717 143.53 24.3875C143.525 24.4033 143.516 24.4179 143.505 24.4302C143.493 24.4425 143.48 24.4523 143.465 24.4589C143.449 24.4656 143.433 24.469 143.416 24.469H137.749C137.732 24.469 137.716 24.4654 137.7 24.4584C137.685 24.4514 137.671 24.4413 137.66 24.4286C137.649 24.4159 137.64 24.4009 137.635 24.3847C137.63 24.3686 137.629 24.3515 137.631 24.3347C137.784 23.2605 138.736 21.9765 140.566 21.9765ZM143.672 28.9663C143.634 28.9661 143.597 28.9749 143.563 28.9919C143.53 29.009 143.501 29.0338 143.479 29.0642C142.968 29.7841 142.136 30.228 140.894 30.228C139.183 30.228 137.697 29.1034 137.537 27.5098C137.535 27.4933 137.537 27.4766 137.542 27.4609C137.548 27.4452 137.556 27.4307 137.567 27.4184C137.578 27.4061 137.592 27.3963 137.607 27.3896C137.622 27.3828 137.639 27.3793 137.655 27.3792H147.837C147.866 27.2897 147.926 26.6072 147.926 25.9833C147.926 21.2351 145.095 18.4153 140.506 18.4153C136.662 18.4153 133.116 21.4421 133.116 26.1913C133.116 31.1483 136.752 34.0567 140.834 34.0567C144.524 34.0567 146.862 31.9922 147.62 29.4969C147.624 29.482 147.65 29.3887 147.678 29.2526C147.685 29.218 147.684 29.1822 147.676 29.1478C147.667 29.1135 147.651 29.0814 147.629 29.054C147.607 29.0265 147.579 29.0044 147.547 28.9893C147.515 28.9741 147.48 28.9663 147.444 28.9663H143.672V28.9663ZM152.675 26.1157L147.847 19.234C147.822 19.1983 147.808 19.1565 147.805 19.113C147.802 19.0695 147.811 19.0261 147.832 18.9876C147.852 18.949 147.882 18.9167 147.919 18.8942C147.957 18.8717 148 18.8599 148.043 18.8601H152.789C152.871 18.8601 152.945 18.9002 152.99 18.9673L155.47 22.7439C155.517 22.8157 155.623 22.8148 155.67 22.742L158.093 18.9701C158.115 18.9364 158.144 18.9087 158.18 18.8894C158.215 18.8702 158.254 18.8601 158.294 18.8601H162.768C162.962 18.8601 163.075 19.0774 162.964 19.235L158.201 25.9358C158.172 25.9756 158.157 26.0233 158.157 26.0722C158.157 26.1211 158.172 26.1689 158.2 26.209C159.759 28.4283 161.541 30.9926 163.14 33.2371C163.252 33.3947 163.14 33.611 162.946 33.611H158.232C158.193 33.6112 158.154 33.6015 158.119 33.583C158.084 33.5644 158.055 33.5375 158.033 33.5047L155.461 29.6051C155.45 29.5887 155.435 29.5753 155.418 29.5661C155.401 29.5568 155.381 29.5519 155.362 29.5519C155.342 29.5519 155.323 29.5568 155.305 29.5661C155.288 29.5753 155.273 29.5887 155.262 29.6051C154.492 30.7502 153.485 32.3447 152.721 33.5047C152.7 33.5376 152.67 33.5645 152.635 33.5831C152.6 33.6017 152.561 33.6113 152.522 33.611H148.128C148.085 33.6113 148.042 33.5996 148.005 33.5773C147.968 33.555 147.937 33.5229 147.917 33.4845C147.897 33.4461 147.888 33.4029 147.89 33.3596C147.893 33.3163 147.907 33.2746 147.932 33.239L152.676 26.3862C152.703 26.3465 152.718 26.2993 152.718 26.2509C152.718 26.2026 152.703 26.1554 152.676 26.1157H152.675ZM127.097 33.3742V12.3607C127.097 12.2292 127.204 12.1229 127.335 12.1229H131.388C131.52 12.1229 131.627 12.2292 131.627 12.3607V33.3742C131.627 33.5047 131.52 33.611 131.388 33.611H127.335C127.304 33.6111 127.273 33.6051 127.244 33.5933C127.216 33.5814 127.189 33.564 127.167 33.542C127.145 33.52 127.127 33.4939 127.115 33.4651C127.103 33.4363 127.097 33.4054 127.097 33.3742V33.3742ZM120.422 33.3742V12.3607C120.422 12.2292 120.529 12.1229 120.661 12.1229H124.713C124.845 12.1229 124.951 12.2292 124.951 12.3607V33.3742C124.951 33.5047 124.845 33.611 124.713 33.611H120.661C120.63 33.6111 120.599 33.6051 120.57 33.5933C120.541 33.5814 120.515 33.564 120.492 33.542C120.47 33.52 120.453 33.4939 120.441 33.4651C120.428 33.4363 120.422 33.4054 120.422 33.3742V33.3742ZM110.4 30.1385C112.218 30.1385 113.767 28.7146 113.767 26.2211C113.767 23.6689 112.247 22.3327 110.4 22.3327C108.463 22.3327 107.003 23.6689 107.003 26.2211C107.003 28.6549 108.523 30.1394 110.4 30.1394V30.1385ZM113.797 31.7116C113.141 33.1364 111.652 34.0269 109.804 34.0269C105.453 34.0269 102.444 30.7325 102.444 26.1913C102.444 21.7993 105.275 18.4144 109.655 18.4144C112.307 18.4144 113.469 19.869 113.767 20.5516V19.0969C113.767 18.9664 113.873 18.8601 114.006 18.8601H117.909C118.04 18.8601 118.147 18.9664 118.147 19.0979V33.3742C118.147 33.5047 118.04 33.611 117.909 33.611H114.008C113.977 33.611 113.946 33.6048 113.917 33.5927C113.888 33.5805 113.861 33.5628 113.839 33.5404C113.817 33.518 113.8 33.4915 113.788 33.4623C113.776 33.4331 113.77 33.4019 113.771 33.3704C113.778 32.8343 113.797 31.595 113.797 31.7116V31.7116ZM92.7786 19.0233L95.4931 27.2459C95.5304 27.3578 95.6889 27.3541 95.7206 27.2412L98.0397 19.0335C98.0538 18.9835 98.0838 18.9395 98.1252 18.9082C98.1666 18.8769 98.2172 18.86 98.2691 18.8601H102.204C102.365 18.8601 102.48 19.0149 102.433 19.1678L97.9912 33.4441C97.9762 33.4928 97.9461 33.5353 97.9051 33.5655C97.8642 33.5957 97.8146 33.612 97.7637 33.612H93.6113C93.5615 33.6119 93.5129 33.5962 93.4725 33.5671C93.432 33.538 93.4017 33.4969 93.3857 33.4497L90.3365 24.4214C90.2992 24.3132 90.1453 24.3142 90.1099 24.4214L87.1166 33.4478C87.1009 33.4953 87.0707 33.5366 87.0302 33.5659C86.9897 33.5952 86.9409 33.611 86.891 33.611H82.6491C82.5985 33.6111 82.5491 33.595 82.5083 33.5652C82.4674 33.5353 82.437 33.4933 82.4216 33.445L77.9224 19.1687C77.9112 19.1331 77.9086 19.0953 77.9148 19.0585C77.921 19.0217 77.9358 18.9868 77.9579 18.9568C77.9801 18.9267 78.009 18.9023 78.0424 18.8855C78.0757 18.8687 78.1125 18.86 78.1499 18.8601H82.3535C82.4598 18.8601 82.554 18.931 82.5829 19.0335L84.902 27.2151C84.9337 27.327 85.0922 27.3308 85.1295 27.2198L87.8729 19.0233C87.8887 18.9757 87.9191 18.9344 87.9598 18.9051C88.0005 18.8758 88.0493 18.8601 88.0994 18.8601H92.552C92.6546 18.8601 92.7469 18.9254 92.7786 19.0233V19.0233ZM76.6933 23.0208C76.6933 23.0555 76.6857 23.0898 76.671 23.1212C76.6564 23.1526 76.635 23.1805 76.6084 23.2028C76.5819 23.2251 76.5507 23.2413 76.5172 23.2503C76.4837 23.2593 76.4487 23.2609 76.4145 23.2549C76.0341 23.1906 75.6487 23.16 75.2629 23.1635C73.4446 23.1635 71.8062 24.2321 71.8062 27.1704V33.3742C71.8062 33.5047 71.6999 33.611 71.5684 33.611H67.5159C67.4846 33.6111 67.4537 33.6051 67.4248 33.5933C67.3959 33.5814 67.3696 33.564 67.3474 33.542C67.3253 33.52 67.3077 33.4939 67.2956 33.4651C67.2835 33.4363 67.2773 33.4054 67.2771 33.3742V19.0979C67.2771 18.9673 67.3834 18.8601 67.5159 18.8601H71.4192C71.5507 18.8601 71.657 18.9664 71.657 19.0979V20.8491C72.4319 19.1865 74.3099 18.7118 75.5016 18.7118C75.8634 18.7118 76.2252 18.751 76.5078 18.8125C76.6169 18.8368 76.6933 18.9338 76.6933 19.0447V23.0208ZM60.5129 33.3742V19.0979C60.5129 18.9673 60.6202 18.8601 60.7516 18.8601H64.8042C64.9357 18.8601 65.0429 18.9664 65.0429 19.0979V33.3742C65.0429 33.5047 64.9357 33.611 64.8042 33.611H60.7516C60.7204 33.6111 60.6895 33.6051 60.6606 33.5933C60.6317 33.5814 60.6054 33.564 60.5832 33.542C60.5611 33.52 60.5434 33.4939 60.5314 33.4651C60.5193 33.4363 60.513 33.4054 60.5129 33.3742ZM62.7481 11.707C64.2382 11.707 65.4299 12.8941 65.4299 14.3488C65.4299 15.8034 64.2382 16.9905 62.7481 16.9905C61.3177 16.9905 60.1259 15.8034 60.1259 14.3488C60.1259 12.8941 61.3177 11.707 62.7481 11.707V11.707ZM46.0809 25.063H50.8701C50.9522 25.063 51.01 24.9828 50.982 24.9054L48.6173 18.1113C48.6093 18.0878 48.5941 18.0674 48.574 18.0529C48.5538 18.0384 48.5296 18.0305 48.5048 18.0304C48.4799 18.0303 48.4557 18.038 48.4354 18.0523C48.4151 18.0666 48.3998 18.0869 48.3916 18.1104L45.9699 24.9054C45.942 24.9818 45.9998 25.0639 46.0818 25.0639L46.0809 25.063ZM52.3593 29.3375H44.5311C44.482 29.3375 44.4341 29.3528 44.3941 29.3812C44.354 29.4096 44.3237 29.4497 44.3073 29.496L42.8993 33.4534C42.8829 33.4999 42.8524 33.5401 42.8122 33.5685C42.7719 33.5969 42.7238 33.6121 42.6746 33.612H38.2415C38.203 33.6122 38.1649 33.603 38.1307 33.5852C38.0965 33.5675 38.0671 33.5416 38.045 33.51C38.023 33.4783 38.009 33.4418 38.0043 33.4035C37.9995 33.3652 38.0041 33.3263 38.0177 33.2902L45.7946 12.7216C45.8117 12.6763 45.8422 12.6373 45.882 12.6098C45.9219 12.5823 45.9691 12.5676 46.0175 12.5677H51.1406C51.2394 12.5677 51.3289 12.6293 51.3634 12.7225L59.0527 33.2912C59.0659 33.3272 59.0702 33.3658 59.0653 33.4038C59.0604 33.4419 59.0463 33.4781 59.0243 33.5096C59.0023 33.541 58.9731 33.5666 58.939 33.5843C58.905 33.6019 58.8672 33.6111 58.8289 33.611H54.2159C54.1666 33.611 54.1186 33.5958 54.0784 33.5674C54.0382 33.539 54.0077 33.4989 53.9912 33.4525L52.5831 29.496C52.5666 29.4498 52.5363 29.4097 52.4962 29.3814C52.4562 29.353 52.4084 29.3377 52.3593 29.3375V29.3375Z" fill="#A05BF8"/>
<path fill-rule="evenodd" clip-rule="evenodd" d="M32.2772 20.4624C32.8572 21.027 33.2595 21.7488 33.4347 22.5391C33.6098 23.3294 33.5501 24.1536 33.2628 24.9103L31.0743 30.8558C30.4999 32.4168 29.1907 33.6244 27.5728 33.9396C26.7636 34.1015 25.9255 34.0405 25.1483 33.7629C24.371 33.4853 23.6839 33.0017 23.1603 32.3637L10.0366 16.6402C10.004 16.6015 9.96174 16.572 9.91416 16.5548C9.86658 16.5375 9.8153 16.533 9.76545 16.5418C9.71561 16.5506 9.66894 16.5723 9.63012 16.6048C9.59129 16.6373 9.56168 16.6794 9.54424 16.7269L5.2744 28.2757C5.18582 28.5144 5.4208 28.7456 5.65392 28.6505L10.8935 26.5105C11.1889 26.3907 11.5059 26.3333 11.8245 26.3418C12.1431 26.3503 12.4566 26.4246 12.7452 26.56C13.0337 26.6953 13.2912 26.8889 13.5015 27.1284C13.7117 27.368 13.8702 27.6484 13.967 27.9521C14.354 29.1391 13.7031 30.4213 12.5571 30.8894L5.71267 33.6841C4.44543 34.2016 2.98982 34.1102 1.84847 33.3484C1.07067 32.8286 0.490783 32.0618 0.202474 31.1718C-0.0858352 30.2818 -0.0657382 29.3207 0.259519 28.4435L5.30424 14.8032C5.90196 13.1863 7.26339 12.0449 8.94652 11.7502C9.76617 11.6033 10.6102 11.6775 11.3916 11.9652C12.1731 12.2528 12.8638 12.7435 13.3926 13.3867L20.9252 22.4132L27.8535 19.5831C29.393 18.9546 31.0883 19.2912 32.2772 20.4624ZM28.2815 24.9961C28.3692 24.7574 28.1342 24.5262 27.9011 24.6222L24.0732 26.185L26.369 28.9368C26.4016 28.976 26.4439 29.0058 26.4917 29.0234C26.5395 29.0409 26.5911 29.0455 26.6412 29.0367C26.6914 29.0279 26.7384 29.006 26.7773 28.9733C26.8163 28.9405 26.8459 28.898 26.8632 28.8501L28.2806 24.9961H28.2815Z" fill="#A05BF8"/>
</g>
<defs>
<clipPath id="clip0_296_9774">
<rect width="163.473" height="46.7067" fill="white"/>
</clipPath>
</defs>
</svg>
