<svg width="165" height="48" viewBox="0 0 165 48" fill="none" xmlns="http://www.w3.org/2000/svg">
<g clip-path="url(#clip0_296_9782)">
<path d="M35.2839 11.2381C32.5988 9.98177 29.7276 9.06873 26.726 8.54883C26.3573 9.21532 25.9266 10.1118 25.6297 10.8249C22.4388 10.345 19.2773 10.345 16.1451 10.8249C15.8482 10.1118 15.4078 9.21532 15.0358 8.54883C12.0309 9.06873 9.15649 9.98513 6.47131 11.2448C1.05527 19.4291 -0.412928 27.4102 0.321173 35.2779C3.91337 37.9605 7.39465 39.59 10.8172 40.6564C11.6622 39.4934 12.4159 38.2571 13.0651 36.9541C11.8286 36.4842 10.6443 35.9044 9.52519 35.2313C9.82207 35.0113 10.1125 34.7814 10.393 34.5448C17.2185 37.7372 24.6346 37.7372 31.3785 34.5448C31.6624 34.7814 31.9527 35.0113 32.2464 35.2313C31.124 35.9077 29.9364 36.4875 28.6999 36.9575C29.3492 38.2571 30.0996 39.4967 30.9479 40.6597C34.3737 39.5933 37.8582 37.9638 41.4504 35.2779C42.3118 26.1572 39.979 18.2494 35.2839 11.2381ZM13.995 30.4393C11.9461 30.4393 10.2658 28.5265 10.2658 26.1972C10.2658 23.8678 11.9102 21.9517 13.995 21.9517C16.0799 21.9517 17.7601 23.8645 17.7243 26.1972C17.7275 28.5265 16.0799 30.4393 13.995 30.4393ZM27.7766 30.4393C25.7276 30.4393 24.0473 28.5265 24.0473 26.1972C24.0473 23.8678 25.6917 21.9517 27.7766 21.9517C29.8614 21.9517 31.5417 23.8645 31.5058 26.1972C31.5058 28.5265 29.8614 30.4393 27.7766 30.4393Z" fill="#A05BF8"/>
<path d="M55.8873 16.7406H64.7941C66.9413 16.7406 68.7552 17.0838 70.2433 17.7669C71.7274 18.45 72.8402 19.4031 73.5777 20.6228C74.3147 21.8424 74.6866 23.2387 74.6866 24.8116C74.6866 26.3511 74.3016 27.7474 73.5317 28.997C72.7618 30.25 71.5904 31.2398 70.0147 31.9695C68.439 32.6993 66.4875 33.0659 64.155 33.0659H55.8873V16.7406ZM64.0634 28.9171C65.5089 28.9171 66.6217 28.5472 67.3979 27.8107C68.1746 27.0709 68.563 26.0646 68.563 24.7883C68.563 23.6052 68.2167 22.6622 67.5253 21.9557C66.8338 21.2492 65.7864 20.8927 64.3864 20.8927H61.6001V28.9171H64.0634Z" fill="#A05BF8"/>
<path d="M88.0213 33.046C86.788 32.7194 85.6752 32.2462 84.6869 31.623V27.7508C85.4341 28.3406 86.4354 28.8272 87.6915 29.2104C88.9476 29.5903 90.1617 29.7802 91.3359 29.7802C91.884 29.7802 92.2986 29.7069 92.5789 29.5603C92.8598 29.4137 93.0003 29.2371 93.0003 29.0338C93.0003 28.8005 92.9252 28.6073 92.7717 28.4506C92.6181 28.294 92.3213 28.164 91.8812 28.054L89.1404 27.4242C87.571 27.051 86.4582 26.5345 85.7963 25.8713C85.1339 25.2115 84.804 24.3451 84.804 23.2721C84.804 22.369 85.0912 21.5859 85.6723 20.9161C86.2495 20.2463 87.0717 19.7297 88.1385 19.3665C89.2058 19 90.4517 18.8167 91.884 18.8167C93.1629 18.8167 94.3343 18.9566 95.4016 19.2366C96.4683 19.5165 97.3492 19.873 98.0508 20.3096V23.9719C97.3327 23.5354 96.5104 23.1921 95.571 22.9322C94.6345 22.6756 93.6724 22.549 92.6801 22.549C91.2477 22.549 90.5336 22.7989 90.5336 23.2954C90.5336 23.5287 90.6444 23.702 90.8662 23.8186C91.088 23.9352 91.4957 24.0552 92.0865 24.1818L94.3701 24.6017C95.8616 24.865 96.9739 25.3282 97.7046 25.988C98.4358 26.6478 98.8009 27.6242 98.8009 28.9172C98.8009 30.3334 98.1975 31.4564 96.9869 32.2895C95.7763 33.1226 94.0602 33.5391 91.8352 33.5391C90.5267 33.5359 89.2547 33.3725 88.0213 33.046Z" fill="#A05BF8"/>
<path d="M104.192 32.556C102.884 31.9028 101.895 31.0164 101.236 29.8967C100.577 28.777 100.244 27.5174 100.244 26.1178C100.244 24.7182 100.587 23.4652 101.272 22.3622C101.957 21.2592 102.962 20.3927 104.287 19.7629C105.611 19.1331 107.194 18.8198 109.037 18.8198C111.321 18.8198 113.217 19.3097 114.724 20.2894V24.5582C114.192 24.185 113.572 23.8817 112.864 23.6485C112.156 23.4152 111.399 23.2985 110.59 23.2985C109.174 23.2985 108.068 23.5618 107.269 24.0917C106.469 24.6215 106.068 25.3113 106.068 26.1677C106.068 27.0075 106.456 27.694 107.233 28.2339C108.01 28.7704 109.135 29.0403 110.613 29.0403C111.373 29.0403 112.124 28.927 112.864 28.7037C113.602 28.4771 114.238 28.2005 114.769 27.8739V32.0027C113.096 33.0291 111.155 33.5423 108.946 33.5423C107.086 33.5356 105.5 33.2091 104.192 32.556Z" fill="#A05BF8"/>
<path d="M120.42 32.5562C119.102 31.9031 118.098 31.01 117.406 29.8736C116.714 28.7373 116.365 27.471 116.365 26.0714C116.365 24.6718 116.711 23.4221 117.406 22.3258C118.1 21.2294 119.099 20.3697 120.411 19.7465C121.719 19.1233 123.282 18.8134 125.092 18.8134C126.903 18.8134 128.466 19.1233 129.774 19.7465C131.083 20.3697 132.081 21.2228 132.766 22.3124C133.452 23.4022 133.794 24.6518 133.794 26.0681C133.794 27.4676 133.452 28.734 132.766 29.8703C132.081 31.0066 131.079 31.8997 129.761 32.5529C128.443 33.206 126.887 33.5326 125.089 33.5326C123.291 33.5326 121.735 33.2093 120.42 32.5562ZM127.36 28.4174C127.915 27.8509 128.195 27.1011 128.195 26.168C128.195 25.235 127.918 24.4918 127.36 23.942C126.806 23.3888 126.048 23.1122 125.089 23.1122C124.114 23.1122 123.35 23.3888 122.792 23.942C122.238 24.4952 121.96 25.235 121.96 26.168C121.96 27.1011 122.238 27.8509 122.792 28.4174C123.347 28.9839 124.114 29.2705 125.089 29.2705C126.048 29.2671 126.806 28.9839 127.36 28.4174Z" fill="#A05BF8"/>
<path d="M147.517 19.6798V24.7184C146.936 24.3285 146.185 24.1352 145.256 24.1352C144.038 24.1352 143.099 24.5118 142.446 25.2649C141.791 26.0181 141.464 27.191 141.464 28.7772V33.0693H135.869V19.4233H141.35V23.762C141.653 22.1758 142.146 21.0062 142.825 20.2496C143.5 19.4966 144.374 19.12 145.438 19.12C146.244 19.12 146.936 19.3066 147.517 19.6798Z" fill="#A05BF8"/>
<path d="M166.108 16.274V33.0692H160.512V30.0134C160.039 31.1631 159.321 32.0395 158.356 32.6393C157.389 33.2359 156.195 33.5358 154.779 33.5358C153.514 33.5358 152.411 33.2225 151.468 32.5927C150.525 31.9629 149.798 31.0998 149.285 30.0034C148.776 28.9071 148.518 27.6675 148.518 26.2812C148.502 24.8516 148.773 23.5686 149.331 22.4322C149.886 21.2959 150.672 20.4095 151.683 19.773C152.695 19.1365 153.85 18.8166 155.145 18.8166C157.811 18.8166 159.599 19.9996 160.512 22.3622V16.274H166.108ZM159.677 28.3239C160.248 27.7574 160.532 27.021 160.532 26.1212C160.532 25.2515 160.254 24.5416 159.7 23.9985C159.145 23.4553 158.385 23.182 157.429 23.182C156.486 23.182 155.732 23.4586 155.168 24.0118C154.603 24.565 154.323 25.2814 154.323 26.1679C154.323 27.0543 154.603 27.7774 155.168 28.3372C155.732 28.8971 156.476 29.177 157.406 29.177C158.349 29.1737 159.106 28.8904 159.677 28.3239Z" fill="#A05BF8"/>
<path d="M79.4018 20.8758C80.9423 20.8758 82.1915 19.73 82.1915 18.3165C82.1915 16.9031 80.9423 15.7573 79.4018 15.7573C77.8609 15.7573 76.6121 16.9031 76.6121 18.3165C76.6121 19.73 77.8609 20.8758 79.4018 20.8758Z" fill="#A05BF8"/>
<path d="M76.6097 22.6389C78.319 23.3919 80.44 23.4253 82.1885 22.6389V33.1425H76.6097V22.6389Z" fill="#A05BF8"/>
</g>
<defs>
<clipPath id="clip0_296_9782">
<rect width="166.393" height="46.7067" fill="white" transform="translate(0.14502 0.707031)"/>
</clipPath>
</defs>
</svg>
