<svg width="155" height="47" viewBox="0 0 155 47" fill="none" xmlns="http://www.w3.org/2000/svg">
<g clip-path="url(#clip0_296_9778)">
<path d="M10.4077 14.4497L9.10596 19.2411L16.5571 14.4224L11.6839 32.6045L16.6332 32.6086L23.8323 5.75293" fill="#A05BF8"/>
<path d="M2.38769 24.9647L0.337891 32.6085H10.4819L14.6328 17.059L2.38769 24.9647ZM37.6244 18.2351C37.3765 19.1567 36.8987 19.8336 36.1863 20.2659C35.4754 20.6973 34.4778 20.9139 33.1901 20.9139H29.0987L30.5353 15.558H34.6266C35.9127 15.558 36.7962 15.7729 37.2756 16.2109C37.755 16.649 37.8707 17.3185 37.6244 18.2442V18.2351ZM41.8604 18.1285C42.3811 16.1944 42.1662 14.7066 41.2141 13.6652C40.2635 12.632 38.5956 12.1113 36.2152 12.1113H27.0845L21.588 32.6176H26.024L28.2392 24.3523H31.1485C31.8015 24.3523 32.3156 24.4597 32.6909 24.6664C33.0669 24.8813 33.2876 25.2532 33.3554 25.7904L34.1472 32.6176H38.8998L38.1294 26.2533C37.9724 24.8317 37.3219 23.9969 36.1788 23.7489C37.636 23.3274 38.8568 22.6248 39.8404 21.6495C40.8171 20.6813 41.5149 19.4679 41.8604 18.1368V18.1285ZM52.6434 25.278C52.2714 26.6666 51.7011 27.7163 50.93 28.4519C50.158 29.1875 49.2356 29.5512 48.1594 29.5512C47.0634 29.5512 46.3204 29.1958 45.9278 28.4767C45.5344 27.7576 45.5211 26.7162 45.8865 25.3524C46.2518 23.9886 46.8345 22.9224 47.6362 22.1537C48.438 21.385 49.3752 21.0007 50.4514 21.0007C51.5259 21.0007 52.2615 21.3726 52.6334 22.1107C53.0136 22.8521 53.0219 23.9126 52.65 25.2929L52.6434 25.278ZM54.5874 18.021L54.0319 20.0956C53.7922 19.3518 53.3269 18.7566 52.6392 18.3103C51.9499 17.8723 51.0969 17.6491 50.0794 17.6491C48.8314 17.6491 47.6329 17.9714 46.484 18.6161C45.3352 19.2608 44.3268 20.17 43.4672 21.3437C42.6076 22.5174 41.9794 23.8481 41.5744 25.3441C41.1777 26.8484 41.095 28.1626 41.3347 29.3032C41.5827 30.4521 42.1034 31.3282 42.9051 31.9398C43.7152 32.5597 44.7483 32.8656 46.0129 32.8656C47.0178 32.8707 48.0113 32.6533 48.9223 32.2291C49.823 31.8229 50.6241 31.2249 51.2697 30.4769L50.6911 32.6391H54.9808L58.8977 18.0285H54.5998L54.5874 18.021ZM74.3126 18.021H61.8377L60.9657 21.2776H68.2243L58.6283 29.5677L57.8084 32.6259H70.6857L71.5577 29.3693H63.7801L73.5232 20.9552L74.3126 18.021ZM85.293 25.2532C84.9071 26.6914 84.3343 27.7725 83.578 28.4767C82.8217 29.1875 81.9059 29.5429 80.8306 29.5429C78.5824 29.5429 77.8435 28.113 78.6105 25.2532C78.9907 23.8316 79.566 22.7629 80.3347 22.0429C81.1033 21.3206 82.0349 20.9602 83.13 20.9602C84.2045 20.9602 84.9302 21.3181 85.3038 22.0388C85.6774 22.7579 85.6741 23.8299 85.293 25.2515V25.2532ZM87.8041 18.5707C86.8163 17.9557 85.5559 17.6483 84.0185 17.6483C82.4622 17.6483 81.0215 17.9541 79.6958 18.5657C78.3755 19.1735 77.2152 20.0808 76.307 21.2156C75.373 22.3645 74.701 23.7117 74.2886 25.2491C73.8836 26.7806 73.834 28.1254 74.1481 29.2768C74.4622 30.4256 75.1234 31.31 76.1152 31.9217C77.1153 32.5383 78.3882 32.8449 79.9503 32.8449C81.4877 32.8449 82.9176 32.5358 84.2318 31.9208C85.546 31.3026 86.67 30.4248 87.604 29.2677C88.538 28.1155 89.2075 26.7715 89.6208 25.2342C90.034 23.6968 90.0836 22.3545 89.7695 21.2007C89.4555 20.0518 88.8025 19.1674 87.8189 18.5517L87.8041 18.5707ZM103.118 21.9239L104.217 17.9483C103.845 17.7582 103.358 17.659 102.746 17.659C101.763 17.659 100.82 17.902 99.9111 18.3946C99.1292 18.8129 98.4647 19.403 97.9026 20.1419L98.4729 18.0012L97.2273 18.0062H94.1692L90.2266 32.611H94.5767L96.6223 24.9763C96.9199 23.8663 97.4555 22.9926 98.2283 22.3727C98.9969 21.7503 99.9557 21.4387 101.113 21.4387C101.824 21.4387 102.485 21.6016 103.113 21.9264L103.118 21.9239ZM115.222 25.3235C114.85 26.6872 114.288 27.7287 113.519 28.4477C112.75 29.1701 111.825 29.5305 110.75 29.5305C109.676 29.5305 108.94 29.1668 108.552 28.4395C108.155 27.708 108.147 26.6542 108.519 25.2689C108.891 23.8845 109.461 22.8224 110.246 22.0868C111.031 21.3454 111.957 20.9751 113.031 20.9751C114.089 20.9751 114.8 21.3553 115.18 22.1239C115.561 22.8926 115.569 23.9588 115.204 25.3226L115.222 25.3235ZM118.245 18.5946C117.439 17.95 116.41 17.6276 115.162 17.6276C114.069 17.6276 113.027 17.8756 112.038 18.3764C111.05 18.8765 110.249 19.5584 109.633 20.4213L109.648 20.3221L110.377 17.9995H106.129L105.046 22.0413L105.013 22.1818L100.55 38.8315H104.906L107.154 30.4504C107.377 31.196 107.832 31.7812 108.526 32.2043C109.22 32.6259 110.077 32.835 111.097 32.835C112.361 32.835 113.568 32.5292 114.713 31.9175C115.862 31.3042 116.853 30.4215 117.696 29.2809C118.539 28.1403 119.165 26.8178 119.564 25.3218C119.969 23.8233 120.052 22.4868 119.821 21.3172C119.585 20.1461 119.064 19.2393 118.258 18.598L118.245 18.5946ZM132.694 25.2639C132.322 26.6442 131.752 27.7022 130.983 28.4296C130.214 29.1619 129.289 29.5264 128.214 29.5264C127.115 29.5264 126.371 29.171 125.982 28.4519C125.586 27.7328 125.577 26.6914 125.941 25.3276C126.305 23.9638 126.885 22.8976 127.687 22.1289C128.488 21.3602 129.427 20.9767 130.503 20.9767C131.577 20.9767 132.305 21.3487 132.685 22.0843C133.065 22.8224 133.067 23.8828 132.697 25.2664L132.694 25.2639ZM134.636 18.0029L134.08 20.0774C133.84 19.3294 133.377 18.7343 132.691 18.2921C131.997 17.8508 131.146 17.6309 130.129 17.6309C128.881 17.6309 127.676 17.9533 126.525 18.598C125.377 19.2427 124.368 20.1469 123.509 21.3172C122.649 22.4876 122.021 23.8216 121.616 25.3177C121.215 26.8195 121.136 28.1361 121.376 29.2817C121.618 30.4223 122.14 31.3034 122.947 31.9184C123.752 32.53 124.79 32.8391 126.054 32.8391C127.071 32.8391 128.042 32.6275 128.964 32.2027C129.862 31.7946 130.661 31.1958 131.305 30.448L130.727 32.6118H135.016L138.933 18.007H134.643L134.636 18.0029ZM156.942 18.0078L156.944 18.0037H154.308C154.223 18.0037 154.149 18.0078 154.072 18.0095H152.704L152.002 18.9848L151.828 19.2162L151.754 19.3319L146.195 27.0749L145.046 18.0078H140.494L142.8 31.7861L137.708 38.8364H142.246L143.478 37.09C143.512 37.0387 143.544 36.9957 143.585 36.9412L145.023 34.8997L145.065 34.8418L151.506 25.7086L156.936 18.0219L156.944 18.0169H156.942V18.0078Z" fill="#A05BF8"/>
</g>
<defs>
<clipPath id="clip0_296_9778">
<rect width="156.662" height="46.7067" fill="white" transform="translate(0.337891)"/>
</clipPath>
</defs>
</svg>
