<svg width="157" height="48" viewBox="0 0 157 48" fill="none" xmlns="http://www.w3.org/2000/svg">
<g clip-path="url(#clip0_296_9785)">
<path d="M44.083 14.3418H51.4998C56.2282 14.3418 60.1342 17.0776 60.1342 23.3241V24.6367C60.1342 30.9307 56.4812 33.7614 51.6421 33.7614H44.083V14.3418ZM48.2263 17.8683V30.219H51.4049C54.0933 30.219 55.8961 28.4637 55.8961 24.5576V23.5297C55.8961 19.6236 53.9984 17.8683 51.2626 17.8683H48.2263ZM62.3324 18.0581H65.6533L66.191 21.7111C66.8236 19.2283 68.4366 17.8999 71.3622 17.8999H72.3901V22.0906H70.6822C67.3138 22.0906 66.4915 23.2609 66.4915 26.5818V33.8088H62.3956V18.0581H62.3324ZM73.2124 26.2497V25.8069C73.2124 20.5409 76.5808 17.6627 81.1669 17.6627C85.8478 17.6627 89.1213 20.5409 89.1213 25.8069V26.2497C89.1213 31.4209 85.9427 34.2042 81.1669 34.2042C76.0906 34.1567 73.2124 31.4367 73.2124 26.2497ZM84.9306 26.2023V25.8069C84.9306 22.8813 83.4599 21.126 81.1194 21.126C78.8264 21.126 77.3083 22.739 77.3083 25.8069V26.2023C77.3083 29.033 78.779 30.646 81.1194 30.646C83.4599 30.5986 84.9306 29.033 84.9306 26.2023ZM91.272 18.0581H94.6879L95.0832 21.0311C95.9056 19.0385 97.6609 17.6627 100.254 17.6627C104.255 17.6627 106.896 20.5409 106.896 25.8702V26.313C106.896 31.4842 103.971 34.22 100.254 34.22C97.7716 34.22 96.0637 33.0972 95.2255 31.2944V39.2488H91.2246L91.272 18.0581ZM102.737 26.2023V25.8544C102.737 22.7232 101.124 21.1734 98.9735 21.1734C96.6804 21.1734 95.1623 22.9288 95.1623 25.8544V26.1548C95.1623 28.9381 96.633 30.6935 98.926 30.6935C101.282 30.646 102.737 29.1437 102.737 26.2023ZM112.953 30.899L112.605 33.7772H109.094V12.792H113.095V20.8413C113.981 18.7855 115.736 17.6627 118.219 17.6627C121.983 17.7102 124.766 20.3037 124.766 25.5223V26.0125C124.766 31.2311 122.125 34.22 118.124 34.22C115.483 34.1567 113.775 32.9391 112.953 30.899ZM120.56 26.0125V25.6172C120.56 22.739 118.994 21.126 116.796 21.126C114.55 21.126 112.985 22.9288 112.985 25.6646V26.0125C112.985 28.9381 114.503 30.646 116.748 30.646C119.152 30.646 120.56 29.1437 120.56 26.0125ZM126.522 26.2497V25.8069C126.522 20.5409 129.89 17.6627 134.476 17.6627C139.157 17.6627 142.43 20.5409 142.43 25.8069V26.2497C142.43 31.4209 139.204 34.2042 134.476 34.2042C129.4 34.1567 126.522 31.4367 126.522 26.2497ZM138.271 26.2023V25.8069C138.271 22.8813 136.801 21.126 134.46 21.126C132.167 21.126 130.649 22.739 130.649 25.8069V26.2023C130.649 29.033 132.12 30.646 134.46 30.646C136.816 30.5986 138.271 29.033 138.271 26.2023ZM147.791 25.6172L142.272 18.0581H147.001L150.179 22.7865L153.405 18.0581H158.086L152.488 25.5697L158.387 33.7772H153.753L150.148 28.5586L146.637 33.7772H141.798L147.791 25.6172Z" fill="#A05BF8"/>
<path d="M18.5908 14.3424L9.41871 20.1936L18.5908 26.0448L9.41871 31.896L0.246582 26.0131L9.41871 20.162L0.246582 14.3424L9.41871 8.49121L18.5908 14.3424ZM9.37127 33.7778L18.5434 27.9266L27.7155 33.7778L18.5434 39.629L9.37127 33.7778ZM18.5908 26.0131L27.763 20.162L18.5908 14.3424L27.7155 8.49121L36.8877 14.3424L27.7155 20.1936L36.8877 26.0448L27.7155 31.896L18.5908 26.0131Z" fill="#A05BF8"/>
</g>
<defs>
<clipPath id="clip0_296_9785">
<rect width="158.608" height="46.7067" fill="white" transform="translate(0.246582 0.707031)"/>
</clipPath>
</defs>
</svg>
