<svg width="163" height="47" viewBox="0 0 163 47" fill="none" xmlns="http://www.w3.org/2000/svg">
<g clip-path="url(#clip0_296_9776)">
<path d="M162.489 19.7877C163.451 20.8075 163.935 22.1902 163.935 23.9419V33.1575H160.368V24.9867C160.368 23.9544 160.077 23.1411 159.494 22.5468C158.911 21.9524 158.123 21.6521 157.125 21.6521C155.946 21.6709 155.01 22.0775 154.321 22.8658C153.633 23.6541 153.286 24.6677 153.286 25.9002V33.1575H149.744V12.6805H153.286V21.2079C154.284 19.2747 156.039 18.2925 158.545 18.2549C160.207 18.2549 161.528 18.7617 162.489 19.7877ZM141.868 21.4269C140.689 21.4269 139.728 21.8335 138.996 22.6406C138.264 23.4539 137.892 24.4987 137.892 25.7875C137.892 27.1139 138.264 28.1775 138.996 28.9908C139.734 29.7979 140.689 30.2045 141.874 30.2045C143.617 30.2045 144.925 29.6227 145.8 28.4653L148.008 30.3171C147.357 31.2744 146.463 32.0376 145.422 32.5256C144.349 33.0386 143.108 33.2952 141.688 33.2952C140.255 33.2952 138.978 32.9823 137.861 32.3567C136.764 31.7498 135.858 30.8302 135.263 29.7228C134.642 28.5904 134.332 27.2891 134.332 25.8188C134.332 24.3298 134.649 23.0097 135.275 21.8711C135.877 20.7512 136.788 19.8378 137.892 19.2246C139.009 18.599 140.292 18.2862 141.75 18.2862C143.077 18.2862 144.262 18.5177 145.304 18.9869C146.346 19.4561 147.195 20.1256 147.853 20.9889L145.701 23.0598C144.702 21.9712 143.431 21.4269 141.868 21.4269ZM132.069 18.3926V33.1575H128.527V30.8114C128.025 31.5997 127.324 32.2441 126.499 32.6758C125.674 33.1075 124.725 33.3264 123.652 33.3264C122.269 33.3264 121.06 33.0074 120.012 32.3755C118.97 31.7436 118.151 30.8489 117.574 29.6978C116.998 28.5466 116.706 27.2265 116.706 25.7375C116.706 24.2673 116.998 22.9659 117.581 21.8335C118.157 20.7011 118.976 19.8253 120.018 19.1996C121.06 18.574 122.263 18.2612 123.628 18.2612C124.701 18.2612 125.656 18.4801 126.487 18.9118C127.318 19.3435 128.025 19.9817 128.527 20.7762V18.4051L132.069 18.3926ZM127.243 29.2223C127.988 28.4965 128.416 27.5331 128.527 26.3381V25.2933C128.416 24.0921 127.994 23.1349 127.25 22.4091C126.505 21.6834 125.563 21.3205 124.415 21.3205C123.2 21.3205 122.207 21.7397 121.445 22.578C120.682 23.4164 120.291 24.4987 120.272 25.8188C120.291 27.1452 120.682 28.2213 121.445 29.0596C122.207 29.898 123.2 30.3171 124.415 30.3171C125.556 30.3171 126.499 29.9543 127.243 29.2223ZM113.14 20.2945C114.312 21.6396 114.895 23.5228 114.895 25.9502C114.895 26.4257 114.883 26.7886 114.87 27.0263H104.11C104.346 28.0774 104.829 28.897 105.567 29.4976C106.299 30.0982 107.205 30.3922 108.278 30.3922C109.009 30.3922 109.741 30.2483 110.417 29.9605C111.093 29.6852 111.701 29.2661 112.204 28.7343L114.108 30.7488C113.369 31.5684 112.464 32.2066 111.447 32.6257C110.405 33.0699 109.245 33.2889 107.974 33.2889C106.485 33.2889 105.17 32.9761 104.035 32.3505C102.925 31.7498 102.007 30.8302 101.406 29.7165C100.786 28.5841 100.482 27.2828 100.482 25.8126C100.482 24.3423 100.792 23.0348 101.424 21.8961C102.032 20.7762 102.944 19.8503 104.054 19.2309C105.183 18.5928 106.46 18.2799 107.893 18.2799C110.219 18.2799 111.968 18.9556 113.14 20.2945ZM111.658 24.6301C111.621 23.5415 111.267 22.6781 110.597 22.0337C109.927 21.3893 109.034 21.064 107.924 21.064C106.888 21.064 106.02 21.3831 105.319 22.015C104.618 22.6469 104.191 23.5165 104.023 24.6239H111.658V24.6301ZM96.6302 19.0432C97.4737 18.5365 98.4598 18.2737 99.5886 18.2549V21.7334C98.0815 21.6396 96.8783 21.9962 95.979 22.797C95.0797 23.5978 94.627 24.6802 94.627 26.0378V33.1575H91.0856V18.3926H94.627V21.2329C95.1231 20.2757 95.7868 19.5437 96.6302 19.0432ZM88.4312 32.2441C87.2714 32.9636 86.0496 33.3202 84.7782 33.3202C83.5254 33.3202 82.4958 32.9448 81.702 32.2003C80.9019 31.4558 80.505 30.3547 80.505 28.9032V14.9391L84.0215 14.5136V18.9932H88.1893V21.6146H84.0215V28.2713C84.0215 28.9533 84.1456 29.435 84.3999 29.7165C84.6541 30.0043 85.0325 30.142 85.541 30.142C86.0868 30.142 86.7752 29.9418 87.6125 29.5351L88.4312 32.2441ZM73.9432 18.3926H77.4598V26.6697C77.4598 31.4996 74.1293 33.2952 70.7492 33.2952C67.3691 33.2952 64.0448 31.4996 64.0448 26.6697V18.3926H67.5614V26.7948C67.5614 28.6467 68.9258 30.1482 70.7554 30.1482C72.585 30.1482 73.9495 28.6467 73.9495 26.7948L73.9432 18.3926ZM56.7574 14.889C58.2769 15.7211 59.5422 16.9536 60.4228 18.4489C61.3159 19.9566 61.7563 21.6333 61.7563 23.4727C61.7563 25.3121 61.3097 26.9888 60.4228 28.5091C59.5422 30.0168 58.2769 31.2618 56.7574 32.1127C55.2007 32.9949 53.4828 33.4391 51.5912 33.4391C49.6996 33.4391 47.9816 32.9949 46.4311 32.1127C44.9116 31.2618 43.6464 30.0168 42.7657 28.5091C41.8788 26.9888 41.4323 25.3121 41.4323 23.4727C41.4323 21.6333 41.8788 19.9566 42.7657 18.4489C43.6464 16.9473 44.9116 15.7211 46.4311 14.889C47.9816 14.0256 49.7058 13.5939 51.5912 13.5939C53.4828 13.5877 55.2069 14.0194 56.7574 14.889ZM48.4095 17.7732C47.4234 18.3362 46.6047 19.1558 46.0404 20.1443C45.4574 21.1516 45.1659 22.259 45.1659 23.4727C45.1659 24.6864 45.4636 25.8001 46.0528 26.8136C46.6233 27.8083 47.442 28.6342 48.4219 29.216C49.4143 29.8041 50.4872 30.0982 51.6532 30.0982C52.7758 30.1044 53.8797 29.7979 54.841 29.216C55.8147 28.6342 56.6148 27.8083 57.173 26.8136C57.7498 25.7938 58.0413 24.6426 58.0289 23.4727C58.0289 22.259 57.7436 21.1516 57.173 20.1443C56.621 19.1621 55.8147 18.3425 54.841 17.7732C53.8735 17.1976 52.7758 16.8973 51.6532 16.9035C50.512 16.8973 49.3956 17.1976 48.4095 17.7732ZM14.745 5.31055C19.7624 5.31055 27.3413 6.86838 30.864 10.4407C31.7571 11.3479 32.9293 13.1185 32.9293 15.7211C32.9293 20.3383 29.2515 27.4267 25.1954 31.5434C23.0991 33.6705 19.7624 36.4484 15.2721 36.4484C10.8811 36.4484 7.53201 33.4328 6.5645 32.4443C2.84328 28.678 0.182617 22.9597 0.182617 17.6355C0.182617 14.2696 1.13153 11.3291 3.54411 8.88292C5.77684 6.62438 9.62829 5.31055 14.745 5.31055ZM20.9532 23.7355C22.6463 22.0212 23.1053 19.9066 23.1053 18.7429C23.1053 17.8983 22.8882 16.6658 21.8463 15.6085C20.2524 13.9881 18.4786 13.5314 16.556 13.5314C14.1186 13.5314 12.4812 14.3134 11.3897 15.4145C10.5338 16.2904 9.79575 17.6168 9.79575 19.5124C9.79575 21.4019 10.7943 23.2287 11.8734 24.3298C12.8782 25.3433 14.4535 26.0941 16.035 26.0941C17.6227 26.0941 19.26 25.4497 20.9532 23.7355Z" fill="#A05BF8"/>
</g>
<defs>
<clipPath id="clip0_296_9776">
<rect width="164.447" height="46.7067" fill="white" transform="translate(0.182617)"/>
</clipPath>
</defs>
</svg>
